<svg xmlns="http://www.w3.org/2000/svg" viewBox="0 0 128 128">
  <defs>
    <linearGradient id="bg" x1="0%" x2="100%" y1="0%" y2="100%">
      <stop offset="0%" stop-color="#0b214a" />
      <stop offset="100%" stop-color="#14366f" />
    </linearGradient>
  </defs>
  <rect width="128" height="128" rx="28" fill="url(#bg)" />
  <path
    d="M77.1 28.5c11.1 0 21.8 4.3 29.7 12.1l-10 10c-5.3-5.3-12.2-8.1-19.7-8.1-7.4 0-14.4 2.9-19.7 8.1l-2.2 2.2 15.2 15.2 18.1-18.1 10 10-28.1 28.1-35.2-35.2 12.2-12.2c7.9-7.8 18.5-12.1 29.7-12.1Z"
    fill="#9df442"
  />
  <path
    d="M31.7 53.4c3.9-3.9 10.3-3.9 14.2 0l28.7 28.7c3.9 3.9 3.9 10.3 0 14.2l-7.5 7.5c-3.6 3.6-9.3 3.9-13.3.8-9.3-7-17.7-15.1-24.8-24.1-3.2-4.1-2.9-9.8.7-13.4l7.9-7.7Z"
    fill="#ffffff"
  />
</svg>
